<?xml version="1.0" encoding="utf-8"?>
<!-- Generator: Adobe Illustrator 26.3.1, SVG Export Plug-In . SVG Version: 6.00 Build 0)  -->
<svg version="1.1" id="Capa_1" xmlns="http://www.w3.org/2000/svg" xmlns:xlink="http://www.w3.org/1999/xlink" x="0px" y="0px"
	 viewBox="0 0 1603.44 864.68" style="enable-background:new 0 0 1603.44 864.68;" xml:space="preserve">
<style type="text/css">
	.st0{fill:none;}
	.st1{fill:#723000;}
	.st2{fill:#007D00;}
	.st3{fill:#FF43FF;}
	.st4{fill:#FFFF00;}
	.st5{fill:#0000FF;}
	.st6{fill:#FF0000;}
	.st7{fill:#2D2D2D;}
</style>
<g>
	<polygon class="st0" points="486.2,552.74 486.21,552.73 486.2,552.74 	"/>
	<path class="st0" d="M431.56,466.63c0.2-0.2,0.39-0.4,0.59-0.6C431.95,466.23,431.76,466.43,431.56,466.63z"/>
	<path class="st0" d="M423.18,475.1c0.7-0.7,1.4-1.41,2.1-2.11C424.58,473.69,423.88,474.4,423.18,475.1z"/>
	<polygon class="st0" points="359.57,522.64 359.58,522.63 359.57,522.64 	"/>
	<path class="st0" d="M381.94,518.71c12.27-14.66,26.05-28.36,39.32-41.67C407.98,490.34,394.21,504.06,381.94,518.71z"/>
	<path class="st0" d="M283.54,635.06c-1.49-1.38-2.97-2.77-4.41-4.18C280.58,632.3,282.05,633.69,283.54,635.06z"/>
	<path class="st0" d="M398.72,478.52c-1.5,1.58-3,3.17-4.51,4.77C395.72,481.7,397.23,480.11,398.72,478.52z"/>
	<path class="st0" d="M284.19,635.66c1.53,1.4,3.08,2.78,4.66,4.14c0,0,0,0,0,0C287.27,638.44,285.72,637.06,284.19,635.66z"/>
	<path class="st0" d="M551.05,311.47c1.58-3.98,3.06-8,4.42-12.06C554.11,303.46,552.63,307.48,551.05,311.47z"/>
	<path class="st0" d="M564.13,262.27c0.27-2.09,0.5-4.19,0.69-6.29C564.63,258.08,564.4,260.17,564.13,262.27z"/>
	<path class="st0" d="M556.46,296.37c0.97-3.05,1.87-6.12,2.7-9.2C558.33,290.25,557.43,293.32,556.46,296.37z"/>
	<path class="st0" d="M565.84,196.34c2.85,3.66,5.52,7.34,8.03,11.07C571.36,203.68,568.68,200,565.84,196.34z"/>
	<path class="st0" d="M563.21,268.54c0.34-2.09,0.65-4.18,0.92-6.27C563.86,264.36,563.56,266.45,563.21,268.54z"/>
	<path class="st0" d="M559.96,284.09c0.52-2.06,1.01-4.13,1.46-6.2C560.97,279.96,560.48,282.03,559.96,284.09z"/>
	<path class="st0" d="M553.11,181.38c3.4,3.69,6.65,7.41,9.72,11.18C559.77,188.8,556.51,185.07,553.11,181.38z"/>
	<path class="st0" d="M565.48,240.18c0.03,4.22-0.11,8.44-0.41,12.64C565.38,248.62,565.52,244.4,565.48,240.18z"/>
	<path class="st0" d="M202.86,527.9c0.3,0.83,0.6,1.67,0.91,2.5C203.47,529.57,203.16,528.73,202.86,527.9z"/>
	<path class="st0" d="M200.89,522.29c0.27,0.78,0.54,1.55,0.81,2.33C201.42,523.84,201.15,523.06,200.89,522.29z"/>
	<path class="st0" d="M604.83,297.43c0.87,6.26,1.52,12.56,1.95,18.88C606.35,309.99,605.7,303.7,604.83,297.43z"/>
	<path class="st0" d="M590.68,242.28c3.06,7.95,5.68,16.01,7.87,24.17C596.36,258.3,593.74,250.23,590.68,242.28z"/>
	<path class="st0" d="M600.12,272.59c0.99,4.1,1.88,8.22,2.66,12.37C602,280.82,601.11,276.69,600.12,272.59z"/>
	<path class="st0" d="M540.31,334.89c0.99-1.91,1.96-3.83,2.9-5.76C542.27,331.06,541.3,332.99,540.31,334.89z"/>
	<path class="st0" d="M211.65,448.37c0.38-2.92,0.85-5.84,1.41-8.76C212.5,442.53,212.03,445.45,211.65,448.37z"/>
	<path class="st0" d="M204.92,533.45c0.33,0.87,0.66,1.75,1,2.62C205.58,535.2,205.25,534.33,204.92,533.45z"/>
	<path class="st0" d="M547.9,239.19c-0.02-13.96-2.04-28.02-6.51-42c-2.6-8.73-5.97-17.14-9.98-25.25c4,8.11,7.38,16.52,9.98,25.25
		C545.86,211.17,547.88,225.23,547.9,239.19z"/>
	<path class="st0" d="M199,516.63c0.21,0.64,0.42,1.28,0.64,1.92C199.42,517.92,199.21,517.28,199,516.63z"/>
	<path class="st0" d="M210.41,466.06L210.41,466.06c0.04-2.98,0.16-5.94,0.37-8.88C210.57,460.12,210.45,463.08,210.41,466.06z"/>
	<path class="st0" d="M504.61,131.01c-1.53-1.89-3.09-3.76-4.68-5.61c-0.01-0.01-0.01-0.01-0.03-0.03c0.01,0.01,0.01,0.01,0.03,0.03
		C501.52,127.25,503.07,129.12,504.61,131.01z"/>
	<path class="st0" d="M210.77,457.17c0.21-2.95,0.5-5.88,0.88-8.8C211.27,451.3,210.98,454.23,210.77,457.17z"/>
	<path class="st0" d="M529.2,354.48c1.12-1.82,2.23-3.65,3.32-5.5C531.43,350.83,530.32,352.66,529.2,354.48z"/>
	<path class="st0" d="M308.18,302.16c-3.4,3.33-6.8,6.65-10.19,9.99c-2.44,2.41-4.88,4.83-7.3,7.26c2.42-2.43,4.86-4.85,7.3-7.26
		C301.38,308.81,304.78,305.48,308.18,302.16z"/>
	<path class="st0" d="M534.13,346.2c1.07-1.86,2.12-3.73,3.15-5.62C536.25,342.47,535.2,344.34,534.13,346.2z"/>
	<path class="st0" d="M525.77,359.9c1.16-1.79,2.3-3.59,3.42-5.41C528.07,356.3,526.93,358.1,525.77,359.9z"/>
	<path class="st0" d="M518.66,370.45c1.82-2.59,3.61-5.22,5.37-7.88C522.27,365.23,520.48,367.86,518.66,370.45z"/>
	<path class="st0" d="M213.97,435.24c0.65-2.91,1.39-5.83,2.22-8.75C215.36,429.42,214.62,432.33,213.97,435.24z"/>
	<path class="st0" d="M208.26,395.58c1.17-2.47,2.4-4.93,3.68-7.39c5.83-9.47,12.34-18.6,19.32-27.45
		c-6.97,8.85-13.48,17.98-19.32,27.45C210.66,390.65,209.43,393.11,208.26,395.58z"/>
	<path class="st0" d="M204.92,402.99c-1.59,3.71-3.04,7.44-4.37,11.17C201.87,410.43,203.33,406.7,204.92,402.99z"/>
	<path class="st0" d="M101.49,366.82c0.24,9.93,0.92,19.81,2.04,29.58c0.17,1.63,0.36,3.26,0.56,4.89c-0.2-1.63-0.39-3.27-0.56-4.89
		C102.41,386.64,101.73,376.76,101.49,366.82z"/>
	<path class="st0" d="M265.07,322.54c-3.95,4.09-7.86,8.22-11.71,12.4C257.21,330.76,261.12,326.63,265.07,322.54z"/>
	<path class="st0" d="M208.26,395.58c-1.17,2.47-2.29,4.94-3.34,7.41C205.97,400.52,207.09,398.04,208.26,395.58z"/>
	<path class="st0" d="M182.9,551.72c-2.62-2.58-5.22-5.19-7.8-7.82C177.68,546.54,180.28,549.14,182.9,551.72z"/>
	<path class="st0" d="M208.42,542.33c-0.47-1.14-0.92-2.28-1.38-3.42C207.5,540.05,207.95,541.19,208.42,542.33
		C208.42,542.33,208.42,542.33,208.42,542.33z"/>
	<path class="st1" d="M344.05,600.38c0-0.23-0.01-0.45-0.01-0.68C344.04,599.92,344.05,600.15,344.05,600.38z"/>
	<path class="st1" d="M356.94,554.97c1.35-2.57,2.78-5.1,4.28-7.6C359.73,549.88,358.3,552.41,356.94,554.97z"/>
	<path class="st1" d="M479.16,559.02c-0.59,0.54-1.18,1.09-1.77,1.63C477.98,560.11,478.57,559.56,479.16,559.02z"/>
	<path class="st1" d="M344.17,604.51c-0.02-0.33-0.04-0.67-0.05-1C344.13,603.84,344.15,604.18,344.17,604.51z"/>
	<path class="st1" d="M344.96,612c-0.02-0.12-0.03-0.24-0.05-0.36C344.93,611.75,344.94,611.88,344.96,612z"/>
	<path class="st1" d="M346.67,619.99c-0.04-0.14-0.08-0.27-0.11-0.41C346.59,619.72,346.63,619.85,346.67,619.99z"/>
	<path class="st1" d="M344.48,608.31c-0.03-0.3-0.06-0.61-0.09-0.91C344.42,607.7,344.45,608.01,344.48,608.31z"/>
	<path class="st1" d="M472.2,565.51c-0.73,0.7-1.46,1.41-2.19,2.11C470.74,566.92,471.47,566.21,472.2,565.51z"/>
	<path class="st1" d="M468.75,568.83c-0.79,0.77-1.57,1.54-2.35,2.32C467.19,570.37,467.97,569.6,468.75,568.83z"/>
	<path class="st1" d="M223.34,588.59c-0.19-0.16-0.38-0.33-0.57-0.49C222.96,588.27,223.15,588.43,223.34,588.59z"/>
	<path class="st1" d="M345.77,584.11c0.09-0.4,0.16-0.81,0.26-1.21C345.93,583.3,345.86,583.71,345.77,584.11z"/>
	<path class="st1" d="M349.79,570.79c2.04-5.41,4.45-10.68,7.15-15.81C354.24,560.11,351.83,565.37,349.79,570.79z"/>
	<path class="st1" d="M345.02,588.15c0.07-0.45,0.14-0.89,0.22-1.34C345.16,587.25,345.09,587.7,345.02,588.15z"/>
	<path class="st1" d="M344.17,595.82c0.01-0.18,0.03-0.36,0.04-0.54C344.2,595.47,344.18,595.65,344.17,595.82z"/>
	<path class="st1" d="M482.68,555.85c-0.48,0.42-0.95,0.86-1.42,1.28C481.73,556.71,482.2,556.27,482.68,555.85z"/>
	<path class="st1" d="M344.49,592.02c0.04-0.41,0.1-0.81,0.15-1.22C344.59,591.21,344.54,591.62,344.49,592.02z"/>
	<path class="st1" d="M475.67,562.24c-0.67,0.63-1.34,1.27-2.02,1.9C474.33,563.5,475,562.86,475.67,562.24z"/>
	<path class="st1" d="M424.91,620.46c-0.9,1.32-1.78,2.66-2.66,4C423.12,623.12,424.01,621.79,424.91,620.46z"/>
	<path class="st1" d="M445.57,593.5c-0.94,1.1-1.87,2.2-2.79,3.31C443.71,595.7,444.64,594.59,445.57,593.5z"/>
	<path class="st1" d="M448.76,589.83c-0.93,1.05-1.85,2.12-2.77,3.18C446.91,591.95,447.83,590.88,448.76,589.83z"/>
	<path class="st1" d="M422.22,624.5c-0.88,1.35-1.75,2.71-2.6,4.07C420.48,627.2,421.34,625.85,422.22,624.5z"/>
	<path class="st1" d="M442.44,597.21c-0.94,1.14-1.88,2.28-2.81,3.43C440.56,599.49,441.5,598.35,442.44,597.21z"/>
	<path class="st1" d="M436.34,604.78c-0.94,1.2-1.87,2.42-2.79,3.63C434.47,607.2,435.4,605.99,436.34,604.78z"/>
	<path class="st1" d="M461.95,575.63c-0.86,0.88-1.71,1.76-2.56,2.65C460.24,577.39,461.09,576.51,461.95,575.63z"/>
	<path class="st1" d="M439.36,600.98c-0.95,1.17-1.88,2.35-2.81,3.54C437.48,603.33,438.42,602.15,439.36,600.98z"/>
	<path class="st1" d="M427.66,616.48c-0.91,1.3-1.82,2.6-2.71,3.92C425.84,619.09,426.74,617.78,427.66,616.48z"/>
	<path class="st1" d="M430.48,612.54c-0.92,1.26-1.83,2.54-2.74,3.82C428.65,615.08,429.56,613.81,430.48,612.54z"/>
	<path class="st1" d="M349.02,627.32c-0.01-0.03-0.02-0.06-0.03-0.09C349,627.26,349.01,627.29,349.02,627.32z"/>
	<path class="st1" d="M458.59,579.11c-0.88,0.92-1.75,1.85-2.61,2.77C456.84,580.95,457.71,580.02,458.59,579.11z"/>
	<path class="st1" d="M397.32,676.01c5.18-16.52,12.89-32.4,22.3-47.45C410.22,643.61,402.51,659.49,397.32,676.01L397.32,676.01z"
		/>
	<path class="st1" d="M347.78,623.76c-0.05-0.16-0.1-0.32-0.15-0.47C347.68,623.45,347.73,623.61,347.78,623.76z"/>
	<path class="st1" d="M455.27,582.63c-0.9,0.97-1.8,1.95-2.69,2.93C453.47,584.58,454.37,583.6,455.27,582.63z"/>
	<path class="st1" d="M354.07,638.22c-0.03-0.05-0.05-0.09-0.08-0.14C354.01,638.13,354.04,638.18,354.07,638.22z"/>
	<polygon class="st1" points="356.04,641.61 356.04,641.61 356.03,641.61 	"/>
	<path class="st1" d="M451.99,586.2c-0.91,1.01-1.82,2.03-2.73,3.05C450.17,588.23,451.08,587.21,451.99,586.2z"/>
	<path class="st1" d="M217.09,561.71c3.01,6.2,6.21,12.3,9.61,18.29C223.3,574.01,220.1,567.91,217.09,561.71z"/>
	<path class="st1" d="M269.96,620.42c1.69,2.04,3.4,4.06,5.15,6.03C273.35,624.47,271.64,622.46,269.96,620.42L269.96,620.42z"/>
	<path class="st1" d="M241.86,578.45c-0.37-0.68-0.74-1.36-1.1-2.04C241.12,577.09,241.49,577.77,241.86,578.45z"/>
	<path class="st1" d="M382.24,686.09c-3.73-1.36-7.47-2.71-11.21-4.05C374.77,683.38,378.51,684.73,382.24,686.09z"/>
	<path class="st1" d="M214.82,556.94c0.6,1.28,1.2,2.56,1.81,3.83C216.02,559.5,215.42,558.22,214.82,556.94z"/>
	<path class="st1" d="M232.22,589.36c-0.9-1.46-1.78-2.93-2.65-4.4C230.44,586.43,231.33,587.9,232.22,589.36
		C232.22,589.36,232.22,589.36,232.22,589.36z"/>
	<path class="st1" d="M190.81,559.38c-1.36-1.29-2.69-2.61-4.04-3.91C188.12,556.78,189.45,558.09,190.81,559.38z"/>
	<path class="st1" d="M331.13,618.45c1.08,4.59,2.51,9.09,4.28,13.45C333.65,627.54,332.21,623.04,331.13,618.45z"/>
	<path class="st1" d="M198.81,566.89c-0.93-0.86-1.85-1.73-2.77-2.59C196.97,565.15,197.88,566.03,198.81,566.89z"/>
	<path class="st1" d="M238.92,572.89c-0.54-1.06-1.08-2.12-1.6-3.18C237.84,570.77,238.38,571.83,238.92,572.89z"/>
	<path class="st1" d="M240.12,602.55C240.12,602.55,240.12,602.55,240.12,602.55c-0.01-0.01-0.03-0.02-0.04-0.03
		C240.09,602.53,240.1,602.54,240.12,602.55z"/>
	<path class="st1" d="M235.97,567c-0.99-2.05-1.97-4.1-2.91-6.17C234.01,562.9,234.98,564.96,235.97,567z"/>
	<path class="st1" d="M210.17,546.52c0.5,1.18,1.02,2.35,1.53,3.52C211.19,548.87,210.67,547.7,210.17,546.52z"/>
	<path class="st1" d="M212.48,551.8c0.54,1.21,1.09,2.42,1.64,3.62C213.56,554.22,213.02,553.01,212.48,551.8z"/>
	<path class="st1" d="M433.38,608.64c-0.93,1.23-1.85,2.47-2.76,3.72C431.52,611.11,432.45,609.87,433.38,608.64z"/>
	<path class="st1" d="M361.22,547.37c2.24-3.75,4.64-7.44,7.17-11.06C365.86,539.94,363.47,543.62,361.22,547.37z"/>
	<path class="st1" d="M209.4,544.69c-0.33-0.79-0.66-1.57-0.98-2.36c0,0,0,0,0,0C208.74,543.12,209.08,543.9,209.4,544.69z"/>
	<path class="st1" d="M344.48,648.98C344.48,648.97,344.48,648.97,344.48,648.98c-0.04-0.06-0.08-0.11-0.11-0.16
		c-0.05-0.07-0.1-0.15-0.15-0.22c0.05,0.07,0.1,0.15,0.15,0.22C344.4,648.87,344.44,648.92,344.48,648.98z"/>
	<path class="st1" d="M373.59,529.16c1.79-2.36,3.62-4.69,5.5-7C377.22,524.47,375.38,526.8,373.59,529.16z"/>
	<path class="st1" d="M462.16,595.41c-2.73,3.02-5.4,6.07-8.03,9.18c-13.14,15.57-25.09,32.52-34.05,50.87
		c-6.7,13.72-11.21,28.68-10.9,44.06c0.02,0.95,0.03,11.81,0.43,11.97c0,0-14.56-5.86-14.56-5.86c-8.49-3.42-17.06-6.54-26.45-9.91
		c0,0-2.23-0.8-2.23-0.8c-2.83-1.01-5.67-2.03-8.49-3.06c-15.36-5.59-30.5-11.8-45-19.31c-0.01-0.04-0.02-0.07-0.04-0.1
		c-2.6-2.84-7.35-3.93-10.63-5.78c-7.35-4.14-14.1-10.37-20.84-15.45c-13.86-10.42-27.6-20.99-41.32-31.59
		c-1.34-1.04-2.66-2.1-4-3.15c86.76,104.74,60.71,187.85,14.67,243.99h239.52c-77.91-109.74-37.85-225.94-3.95-289.42
		C477.9,578.83,469.82,586.93,462.16,595.41z"/>
	<path class="st1" d="M215.08,581.48c-0.38-0.33-0.75-0.67-1.13-1C214.33,580.81,214.7,581.15,215.08,581.48z"/>
	<path class="st1" d="M206.91,574.25c-0.63-0.57-1.26-1.14-1.89-1.71C205.65,573.11,206.28,573.68,206.91,574.25z"/>
	<path class="st1" d="M349.79,570.79c-1.02,2.71-1.95,5.45-2.78,8.23c0,0,0,0,0,0c0,0,0,0,0,0
		C347.84,576.24,348.77,573.49,349.79,570.79z"/>
	<path class="st1" d="M226.78,580.15c0.84,1.48,1.69,2.95,2.55,4.41C228.47,583.1,227.62,581.63,226.78,580.15z"/>
	<path class="st1" d="M462.86,574.7c0.82-0.84,1.65-1.67,2.47-2.5C464.51,573.03,463.68,573.87,462.86,574.7z"/>
	<path class="st1" d="M231.69,595.61c-0.07-0.06-0.13-0.11-0.2-0.17C231.55,595.5,231.62,595.56,231.69,595.61z"/>
	<path class="st2" d="M507.3,536.2c43.94-35.51,77.39-75.29,91.97-130.93c2.41-10.52,4.31-21.11,5.67-31.72
		c0.54-4.25,1-8.49,1.37-12.74c0.18-2.12,0.34-4.25,0.48-6.37c0.28-4.25,0.46-8.5,0.56-12.74c0.19-8.49,0.01-16.96-0.56-25.39
		c-0.43-6.32-1.07-12.62-1.95-18.88c-0.58-4.18-1.26-8.34-2.05-12.48c-0.78-4.14-1.67-8.26-2.66-12.37c-0.5-2.05-1.02-4.1-1.57-6.14
		c-2.19-8.16-4.81-16.22-7.87-24.17c-4.59-11.92-10.18-23.58-16.82-34.88c-2.51-3.73-5.18-7.41-8.03-11.07
		c-0.98-1.26-1.98-2.52-3-3.78c-3.07-3.76-6.32-7.49-9.72-11.18c0.99,2.38,1.91,4.77,2.78,7.19c0.43,1.21,0.85,2.42,1.26,3.64
		c0.41,1.22,0.8,2.44,1.17,3.67c2.41,7.34,4.16,14.72,5.34,22.11c0.34,2.11,0.62,4.22,0.86,6.34c0.24,2.11,0.43,4.23,0.58,6.34
		c0.22,3.17,0.34,6.34,0.37,9.51c0.03,4.22-0.11,8.44-0.41,12.64c-0.07,1.05-0.16,2.1-0.26,3.15c-0.19,2.1-0.42,4.2-0.69,6.29
		c-0.27,2.09-0.58,4.18-0.92,6.27c-0.51,3.13-1.11,6.25-1.79,9.35c-0.45,2.07-0.94,4.14-1.46,6.2c-0.26,1.03-0.53,2.06-0.8,3.09
		c-0.83,3.08-1.73,6.15-2.7,9.2c-0.32,1.02-0.66,2.03-0.99,3.04c-1.36,4.05-2.83,8.07-4.42,12.06c-2.38,5.98-5,11.87-7.83,17.67
		c-0.94,1.93-1.91,3.85-2.9,5.76s-2,3.81-3.03,5.69c-1.03,1.89-2.08,3.76-3.15,5.62c-0.53,0.93-1.07,1.86-1.62,2.78
		c-1.09,1.85-2.2,3.68-3.32,5.5c-1.12,1.82-2.26,3.62-3.42,5.41c-0.58,0.89-1.16,1.79-1.75,2.67c-1.76,2.66-3.55,5.29-5.37,7.88
		c-3.64,5.19-7.39,10.23-11.22,15.1c-21.95,25.34-45.7,48.96-68.55,73.48c-2.2,2.32-4.46,4.66-6.74,6.99
		c-0.19,0.2-0.39,0.4-0.59,0.6c-2.07,2.11-4.16,4.23-6.28,6.36c-0.7,0.7-1.4,1.41-2.1,2.11c-0.64,0.64-1.29,1.29-1.93,1.94
		c-8.18,8.2-16.55,16.56-24.64,25.19c70.97,1.98,120.51,20.41,120.51,20.41S513.25,527.45,507.3,536.2z"/>
	<path class="st2" d="M379.09,522.16c-1.88,2.31-3.71,4.64-5.5,7c-1.79,2.36-3.53,4.74-5.21,7.16c-2.52,3.62-4.92,7.3-7.17,11.06
		c-1.5,2.5-2.93,5.03-4.28,7.6c-2.71,5.13-5.11,10.4-7.15,15.81c-1.02,2.71-1.95,5.45-2.78,8.23c0,0,0,0,0,0
		c-0.36,1.29-0.68,2.59-0.98,3.87c-0.09,0.4-0.17,0.81-0.26,1.21c-0.19,0.9-0.37,1.8-0.53,2.7c-0.08,0.45-0.15,0.89-0.22,1.34
		c-0.14,0.89-0.27,1.77-0.38,2.66c-0.05,0.41-0.11,0.81-0.15,1.22c-0.12,1.09-0.21,2.18-0.28,3.26c-0.01,0.18-0.03,0.36-0.04,0.54
		c-0.08,1.3-0.12,2.59-0.12,3.87c0,0.23,0.01,0.45,0.01,0.68c0,1.05,0.02,2.09,0.07,3.13c0.01,0.33,0.03,0.67,0.05,1
		c0.05,0.97,0.13,1.93,0.22,2.89c0.03,0.3,0.06,0.61,0.09,0.91c0.12,1.11,0.26,2.22,0.43,3.32c0.02,0.12,0.03,0.24,0.05,0.36
		c0.4,2.56,0.94,5.09,1.59,7.59c0.04,0.14,0.08,0.27,0.11,0.41c0.3,1.11,0.62,2.21,0.96,3.3c0.05,0.16,0.1,0.32,0.15,0.47
		c0.38,1.16,0.78,2.32,1.21,3.47c0.01,0.03,0.02,0.06,0.03,0.09c1.39,3.69,3.05,7.29,4.97,10.77c0.03,0.05,0.05,0.09,0.08,0.14
		c0.63,1.14,1.28,2.27,1.97,3.38c0,0,0,0.01,0,0.01c6.71,9.99,15.44,18.49,25.99,25.26l0.14,0.09l0.14,0.09
		c4.57,3.09,9.66,6.12,15.02,8.96c5.18-16.52,12.89-32.4,22.3-47.45c0,0,0,0,0,0c0.85-1.36,1.72-2.72,2.6-4.07
		c0.01-0.01,0.02-0.02,0.02-0.04c0.87-1.34,1.76-2.67,2.66-4c0.01-0.02,0.03-0.04,0.04-0.06c0.89-1.31,1.79-2.62,2.71-3.92
		c0.03-0.04,0.06-0.08,0.09-0.13c0.9-1.28,1.81-2.55,2.74-3.82c0.04-0.06,0.09-0.12,0.13-0.18c0.91-1.25,1.83-2.49,2.76-3.72
		c0.06-0.08,0.11-0.15,0.17-0.22c0.92-1.22,1.85-2.43,2.79-3.63c0.07-0.09,0.14-0.18,0.21-0.27c0.93-1.19,1.86-2.37,2.81-3.54
		c0.09-0.11,0.18-0.22,0.27-0.34c0.93-1.15,1.86-2.29,2.81-3.43c0.11-0.14,0.23-0.27,0.34-0.41c0.92-1.11,1.86-2.21,2.79-3.31
		c0.14-0.16,0.28-0.32,0.42-0.48c0.92-1.07,1.84-2.13,2.77-3.18c0.17-0.19,0.34-0.38,0.51-0.58c0.9-1.02,1.81-2.04,2.73-3.05
		c0.19-0.21,0.39-0.43,0.59-0.64c0.89-0.98,1.79-1.96,2.69-2.93c0.23-0.25,0.47-0.5,0.71-0.75c0.87-0.93,1.74-1.86,2.61-2.77
		c0.26-0.28,0.53-0.55,0.8-0.83c0.85-0.89,1.7-1.77,2.56-2.65c0.3-0.31,0.61-0.62,0.91-0.93c0.82-0.84,1.65-1.67,2.47-2.5
		c0.36-0.36,0.71-0.7,1.07-1.06c0.78-0.77,1.56-1.55,2.35-2.32c0.42-0.41,0.84-0.81,1.25-1.21c0.73-0.71,1.46-1.41,2.19-2.11
		c0.48-0.46,0.97-0.92,1.46-1.37c0.67-0.63,1.34-1.27,2.02-1.9c0.57-0.53,1.15-1.06,1.72-1.58c0.59-0.54,1.18-1.09,1.77-1.63
		c0.7-0.63,1.39-1.26,2.09-1.89c0.47-0.43,0.95-0.86,1.42-1.28c1.17-1.05,2.35-2.08,3.52-3.11c0,0,0,0,0,0c0,0,0,0,0,0
		c0,0,0.01-0.01,0.01-0.01c2.09-1.83,4.19-3.64,6.29-5.4c0,0,0,0,0.01,0c3.46-2.74,7.05-5.47,10.73-8.17
		c1.23-0.9,2.47-1.8,3.72-2.69c0.05-0.04,0.1-0.07,0.15-0.11c0.06-0.05,0.13-0.1,0.19-0.15c5.95-8.76,9.83-13.57,9.83-13.57
		s-49.54-18.43-120.51-20.41c-5.04,5.38-9.97,10.86-14.68,16.48C380.98,519.85,380.03,521,379.09,522.16z"/>
	<path class="st2" d="M394.21,483.29c1.51-1.59,3.01-3.18,4.51-4.77c13.86-14.67,27.97-29.21,41.9-43.93
		c7.96-8.41,15.86-16.87,23.62-25.45c3.88-4.29,7.73-8.61,11.53-12.96c3.8-4.35,7.56-8.74,11.26-13.17
		c1.85-2.22,3.69-4.44,5.51-6.68c7.21-9.32,14.15-19.19,20.54-29.51c2.13-3.44,4.2-6.93,6.19-10.46
		c8.98-15.9,16.49-32.7,21.56-50.03c1.13-3.85,2.13-7.73,3.01-11.62c0.88-3.9,1.62-7.82,2.22-11.75c0.6-3.94,1.06-7.89,1.37-11.85
		c0.31-3.97,0.47-7.94,0.46-11.93c-0.02-13.96-2.04-28.02-6.51-42c-2.6-8.73-5.97-17.14-9.98-25.25c-3-6.08-6.36-11.99-10-17.74
		c-1.21-1.92-2.46-3.81-3.73-5.69c-2.73-4.01-5.58-7.93-8.55-11.79c-1.48-1.93-2.99-3.83-4.53-5.72c-1.53-1.89-3.09-3.76-4.68-5.61
		c-0.01-0.01-0.01-0.01-0.03-0.03c-5.04-5.93-10.33-11.67-15.74-17.23c-1.8-1.85-3.62-3.69-5.45-5.5h-0.01
		c-2.97-2.95-5.96-5.85-8.97-8.7c-3.01-2.85-6.03-5.65-9.05-8.4c-2.44-2.14-4.9-4.25-7.37-6.3c-10.7-9.6-23.88-18.78-36.99-24.75
		c0.6,1.81,1.18,3.67,1.71,5.55c1.36,4.82,2.48,9.75,3.33,14.82c0.01,0.08,0.03,0.16,0.04,0.25c0.21,1.16,0.41,2.33,0.59,3.49
		c0.18,1.16,0.34,2.33,0.49,3.49c0.31,2.44,0.56,4.86,0.73,7.29c0.14,1.8,0.24,3.6,0.3,5.39c0.06,1.79,0.1,3.58,0.1,5.37
		c-0.01,3.59-0.15,7.18-0.42,10.74c-0.26,3.51-0.64,6.98-1.14,10.46c-4.7,32.98-19.52,64.53-36.96,92.94
		c-0.01,0.03-0.04,0.05-0.07,0.1c-1.77,2.89-3.57,5.75-5.4,8.57c-12.19,17.6-26.3,33.62-41.15,49.03
		c-9.88,10.25-20.09,20.22-30.29,30.19c-3.4,3.33-6.8,6.65-10.19,9.99c-2.44,2.41-4.88,4.83-7.3,7.26
		c-7.27,7.28-14.44,14.65-21.38,22.21c-15.22,16.6-29.28,34.16-40.84,53.76c-5.3,10.61-9.37,20.9-12.28,31.12
		c-0.83,2.92-1.57,5.83-2.22,8.75c-0.33,1.46-0.63,2.91-0.91,4.37c-0.56,2.91-1.03,5.83-1.41,8.76c-0.38,2.92-0.67,5.86-0.88,8.8
		s-0.33,5.91-0.37,8.88c-0.07,5.35,0.13,10.75,0.59,16.25c0.15,1.83,0.33,3.68,0.54,5.53c0.83,7.42,2.11,15.02,3.81,22.89
		c0.54,2.12,1.11,4.23,1.71,6.35c1.73,6.16,3.67,12.31,5.81,18.41c54.08-24.19,107.59-32.55,153.85-33.36
		C382.48,495.72,388.38,489.46,394.21,483.29z"/>
	<path class="st2" d="M235.97,567c0.44,0.91,0.89,1.8,1.34,2.71c0.53,1.06,1.06,2.12,1.6,3.18c0.61,1.18,1.22,2.35,1.84,3.52
		c0.36,0.68,0.73,1.36,1.1,2.04c0.74,1.36,1.48,2.72,2.24,4.07c2.84,4.6,5.77,9.1,8.83,13.48l17.03,24.41
		c1.69,2.04,3.4,4.06,5.15,6.03c1.33,1.51,2.67,2.99,4.03,4.44c1.44,1.41,2.92,2.8,4.41,4.18c0.21,0.2,0.43,0.4,0.64,0.59
		c1.53,1.4,3.08,2.78,4.66,4.14c0,0,0,0,0,0c13.48,11.61,28.64,21.54,45.04,28.3c6.4,2.66,12.86,5.14,19.37,7.53
		c2.95,1.09,5.9,2.16,8.86,3.22s5.91,2.12,8.87,3.17h0.01c0.01,0,0.03,0.01,0.04,0.01c3.74,1.34,7.48,2.69,11.21,4.05
		c0,0,0.01,0,0.01,0c-1.86-1.19-3.7-2.4-5.47-3.64c-13.4-9.19-24.37-20.6-32.3-33.48c-0.04-0.05-0.08-0.11-0.11-0.16
		c-0.05-0.07-0.1-0.15-0.15-0.22c-3.49-5.29-6.44-10.88-8.8-16.69c-1.77-4.36-3.2-8.86-4.28-13.45c-1.8-7.65-2.6-15.59-2.32-23.65
		c0.11-3.23,0.4-6.47,0.87-9.73c0.47-3.26,1.12-6.53,1.96-9.81c0.35-1.22,0.71-2.42,1.09-3.62c0.76-2.4,1.6-4.76,2.49-7.1
		s1.86-4.63,2.88-6.9c1.02-2.27,2.11-4.51,3.24-6.72c1.14-2.21,2.33-4.39,3.57-6.55c2.48-4.31,5.17-8.51,8-12.63
		c1.42-2.06,2.88-4.09,4.37-6.1c0.75-1.01,1.5-2.01,2.26-3c0,0,0,0,0,0c5.4-7.06,11.2-13.87,17.15-20.5
		c-46.27,0.81-99.78,9.17-153.85,33.36c3,8.56,6.4,17.03,10.19,25.34C234.01,562.9,234.98,564.96,235.97,567z"/>
	<path class="st2" d="M208.42,542.33c-0.47-1.14-0.92-2.28-1.38-3.42c-0.38-0.94-0.76-1.89-1.12-2.84c-0.34-0.87-0.67-1.74-1-2.62
		c-0.39-1.02-0.77-2.04-1.15-3.06c-0.31-0.83-0.61-1.67-0.91-2.5c-0.39-1.09-0.78-2.19-1.17-3.29c-0.27-0.77-0.54-1.55-0.81-2.33
		c-0.42-1.24-0.84-2.48-1.25-3.73c-0.21-0.64-0.43-1.28-0.64-1.92c-0.62-1.89-1.22-3.79-1.8-5.69c-9.48-33.74-7.67-65.66,3.36-96.78
		c1.32-3.73,2.78-7.46,4.37-11.17c1.06-2.48,2.17-4.95,3.34-7.41c1.17-2.47,2.4-4.93,3.68-7.39c5.83-9.47,12.34-18.6,19.32-27.45
		c6.97-8.85,14.41-17.43,22.11-25.79c3.85-4.18,7.76-8.31,11.71-12.4c11.85-12.26,24.03-24.11,35.85-35.78
		c23.21-23.15,45.88-46.24,65.42-72.61c21.39-32.43,40.36-70.31,42.24-109.78c0.08-1.69,0.13-3.39,0.14-5.09
		c0.01-1.7-0.01-3.4-0.06-5.1c-0.04-1.43-0.1-2.86-0.19-4.29c-0.27-4.29-0.76-8.59-1.48-12.9v-0.01c-0.01-0.11-0.04-0.22-0.05-0.33
		c-0.34-2.22-0.75-4.44-1.23-6.64c-0.51-2.45-1.1-4.89-1.74-7.29c-0.45-1.66-0.96-3.36-1.53-5.19c-1.45-4.57-2.6-8.19-3.7-11.55
		c-8.03-18-21.08-33.86-36.38-45.98c-17.42,9-34.4,18.82-50.78,29.6C286.62,46.65,265.3,65.9,243.5,86.84
		c-45.74,44.72-97.61,91.91-120.78,153.08c-4.65,12.26-8.54,24.92-11.68,37.82c-1.57,6.45-2.95,12.96-4.13,19.52
		c-4.16,22.94-5.98,46.4-5.41,69.57c0.24,9.93,0.92,19.81,2.04,29.58c0.17,1.63,0.36,3.26,0.56,4.89c0.6,4.9,1.33,9.82,2.2,14.77
		c2.86,16.16,7.2,31.01,12.88,44.95c1.71,4.18,3.53,8.28,5.48,12.31c5.84,12.08,12.74,23.52,20.63,34.6
		c3.51,4.92,7.21,9.77,11.1,14.58c1.94,2.4,3.93,4.79,5.97,7.18c4.07,4.76,8.33,9.5,12.76,14.22c2.58,2.63,5.18,5.24,7.8,7.82
		c0.98,0.97,1.98,1.91,2.97,2.88C193.37,550.17,200.9,546.09,208.42,542.33z"/>
	<path class="st2" d="M185.87,554.6c0.3,0.29,0.6,0.58,0.9,0.87c1.35,1.3,2.68,2.62,4.04,3.91c1.73,1.65,3.49,3.28,5.24,4.91
		c0.92,0.86,1.84,1.74,2.77,2.59c2.06,1.9,4.13,3.78,6.21,5.65c0.63,0.57,1.25,1.15,1.89,1.71c2.33,2.09,4.68,4.16,7.04,6.23
		c0.38,0.33,0.75,0.67,1.13,1c2.55,2.22,5.12,4.43,7.69,6.63c0.19,0.16,0.38,0.33,0.57,0.49c2.7,2.3,5.42,4.58,8.15,6.85
		c0.07,0.06,0.13,0.11,0.2,0.17c2.79,2.32,5.58,4.62,8.39,6.9c0.01,0.01,0.03,0.02,0.04,0.03c-2.73-4.29-5.36-8.69-7.89-13.19
		c-0.9-1.46-1.78-2.93-2.65-4.4c-0.08-0.13-0.16-0.27-0.24-0.4c-0.86-1.46-1.72-2.93-2.55-4.41c-0.03-0.05-0.06-0.1-0.08-0.15
		c-3.4-5.99-6.6-12.09-9.61-18.29c-0.15-0.31-0.31-0.63-0.46-0.94c-0.61-1.27-1.22-2.55-1.81-3.83c-0.23-0.5-0.47-1.01-0.7-1.51
		c-0.55-1.2-1.1-2.41-1.64-3.62c-0.26-0.58-0.52-1.17-0.77-1.76c-0.51-1.17-1.03-2.34-1.53-3.52c-0.26-0.61-0.51-1.22-0.77-1.84
		c-0.33-0.79-0.66-1.57-0.99-2.36C200.9,546.09,193.37,550.17,185.87,554.6z"/>
	<path class="st3" d="M394.21,483.29c-11.88,12.56-24.01,25.46-34.64,39.34C370.2,508.75,382.34,495.85,394.21,483.29z"/>
	<path class="st3" d="M492.5,547.33c-2.1,1.77-4.19,3.57-6.29,5.4C488.3,550.9,490.4,549.1,492.5,547.33z"/>
	<path class="st3" d="M284.19,635.66c-0.22-0.2-0.43-0.4-0.64-0.59C283.76,635.26,283.97,635.46,284.19,635.66z"/>
	<path class="st3" d="M432.15,466.03c2.29-2.34,4.54-4.67,6.74-6.99C436.69,461.36,434.43,463.69,432.15,466.03z"/>
	<path class="st3" d="M425.28,472.99c2.11-2.13,4.21-4.25,6.28-6.36C429.49,468.74,427.4,470.86,425.28,472.99z"/>
	<path class="st3" d="M421.25,477.04c0.64-0.65,1.29-1.29,1.93-1.94C422.54,475.74,421.9,476.39,421.25,477.04z"/>
	<g>
		<rect y="851.68" class="st4" width="353.99" height="13"/>
		<rect x="353.99" y="851.68" class="st5" width="176.99" height="13"/>
		<rect x="530.98" y="851.68" class="st6" width="176.99" height="13"/>
	</g>
</g>
<g>
	<path class="st7" d="M699.1,333.51c28.52,0,46.3,11.67,54.08,32.41c1.85,5.37,0.56,8.15-5,10l-19.82,7.04
		c-5.74,1.67-7.96,0.74-10-5c-3.33-8.33-8.89-12.04-19.26-12.04c-14.63,0-20.37,6.3-20.37,19.26v33.71
		c0,12.96,5.74,19.26,20.37,19.26c10.37,0,16.3-4.08,19.26-12.04c2.22-5.74,4.45-7.04,10-5l19.82,7.04c5.56,1.85,6.85,4.63,5,10
		c-7.78,20.74-25.56,32.41-54.08,32.41c-36.49,0-57.05-19.82-57.05-51.86v-33.34C642.06,353.33,662.61,333.51,699.1,333.51z"/>
	<path class="st7" d="M819.67,333.51c36.49,0,56.86,19.82,56.86,51.86v33.34c0,32.04-20.37,51.86-56.86,51.86
		c-36.67,0-57.04-19.82-57.04-51.86v-33.34C762.63,353.33,783,333.51,819.67,333.51z M819.67,365.93
		c-12.96,0-20.37,6.11-20.37,17.78v36.67c0,11.67,7.41,17.78,20.37,17.78c12.78,0,20.19-6.11,20.19-17.78v-36.67
		C839.86,372.04,832.45,365.93,819.67,365.93z"/>
	<path class="st7" d="M928.76,344.07v91.31h44.64c5.74,0,7.78,1.85,7.78,7.78v16.85c0,5.74-2.04,7.78-7.78,7.78h-73.34
		c-5.93,0-7.96-2.04-7.96-7.78V344.07c0-5.74,2.04-7.78,7.96-7.78h20.93C926.91,336.29,928.76,338.33,928.76,344.07z"/>
	<path class="st7" d="M1044.34,333.51c36.49,0,56.86,19.82,56.86,51.86v33.34c0,32.04-20.37,51.86-56.86,51.86
		c-36.67,0-57.04-19.82-57.04-51.86v-33.34C987.29,353.33,1007.67,333.51,1044.34,333.51z M1044.34,365.93
		c-12.96,0-20.37,6.11-20.37,17.78v36.67c0,11.67,7.41,17.78,20.37,17.78c12.78,0,20.19-6.11,20.19-17.78v-36.67
		C1064.53,372.04,1057.12,365.93,1044.34,365.93z"/>
	<path class="st7" d="M1251.04,343.89V460.2c0,5.74-2.04,7.59-7.96,7.59h-20.19c-5.93,0-7.78-1.85-7.78-7.59v-26.49
		c0-12.22,1.11-23.89,8.15-48.53h-2.04c-1.85,6.11-8.52,22.97-12.41,30.56l-10.37,20.93c-2.04,3.7-3.89,5.37-8.89,5.37h-12.41
		c-5,0-6.85-1.3-8.89-5.37l-10.93-20.93c-3.89-7.04-9.63-24.08-11.48-30.56h-1.85c6.67,26.67,7.59,35.93,7.59,48.71v26.3
		c0,5.74-2.04,7.59-7.96,7.59h-18.89c-5.93,0-7.96-1.85-7.96-7.59V343.89c0-5.93,2.04-7.78,7.96-7.78h17.41
		c6.48,0,8.33,1.11,10.93,5.74l30.56,60.01l30.56-59.82c2.59-5,4.26-5.93,10.37-5.93h18.52
		C1249,336.11,1251.04,337.96,1251.04,343.89z"/>
	<path class="st7" d="M1372.72,371.3c0,12.41-3.89,20.74-13.33,27.23v0.74c11.85,5.19,18.71,15.74,18.71,31.86
		c0,23.89-19.45,36.67-45.56,36.67h-55.01c-5.93,0-7.96-2.04-7.96-7.78V344.07c0-5.93,2.04-7.96,7.96-7.96h54.27
		C1357.35,336.11,1372.72,348.7,1372.72,371.3z M1324.2,365.93h-17.96v20.37h17.96c7.41,0,11.3-2.78,11.3-10
		C1335.49,369.08,1331.6,365.93,1324.2,365.93z M1327.72,416.12h-21.48v21.67h21.48c7.96,0,11.85-3.15,11.85-10.93
		C1339.57,419.45,1335.68,416.12,1327.72,416.12z"/>
	<path class="st7" d="M1398.84,336.29h21.85c5.56,0,7.41,1.85,7.41,7.41v116.68c0,5.56-1.85,7.41-7.41,7.41h-21.85
		c-5.56,0-7.41-1.85-7.41-7.41V343.7C1391.43,338.15,1393.28,336.29,1398.84,336.29z"/>
	<path class="st7" d="M1558.86,467.79h-20c-9.63,0-12.41-2.04-13.89-7.78l-4.26-13.33h-40.01l-4.26,13.33
		c-1.85,5.74-4.26,7.78-13.52,7.78h-19.45c-5.74,0-6.85-2.59-5-7.59l42.6-117.42c1.85-5.37,4.26-6.48,9.63-6.48h21.11
		c5.37,0,7.78,1.3,9.63,6.11l42.78,117.79C1566.08,465.2,1564.42,467.79,1558.86,467.79z M1501.44,370h-1.85
		c0,0,0.18,13.34-3.52,25.74l-6.85,21.85h23.15l-6.85-21.67C1501.81,383.34,1501.44,370,1501.44,370z"/>
</g>
<g>
	<path class="st7" d="M665.55,502.65v59.34h-7.66v-59.34H665.55z"/>
	<path class="st7" d="M707.81,552.66c3.43,2.11,8.45,3.87,13.73,3.87c7.84,0,12.41-4.14,12.41-10.12c0-5.55-3.17-8.72-11.18-11.8
		c-9.68-3.43-15.67-8.45-15.67-16.82c0-9.25,7.66-16.11,19.19-16.11c6.07,0,10.48,1.41,13.12,2.91l-2.11,6.25
		c-1.94-1.06-5.9-2.82-11.27-2.82c-8.1,0-11.18,4.84-11.18,8.89c0,5.55,3.61,8.28,11.8,11.45c10.04,3.87,15.14,8.72,15.14,17.43
		c0,9.16-6.78,17.08-20.78,17.08c-5.72,0-11.97-1.67-15.14-3.79L707.81,552.66z"/>
	<path class="st7" d="M839.95,561.99v-25.18l-18.75-34.16h8.72l8.36,16.38c2.29,4.49,4.05,8.1,5.9,12.24h0.18
		c1.67-3.87,3.7-7.75,5.99-12.24l8.54-16.38h8.72l-19.9,34.07v25.27H839.95z"/>
	<path class="st7" d="M951.85,531.7c0,20.43-12.41,31.26-27.56,31.26c-15.67,0-26.68-12.15-26.68-30.11
		c0-18.84,11.71-31.17,27.56-31.17C941.37,501.68,951.85,514.1,951.85,531.7z M905.8,532.67c0,12.68,6.87,24.04,18.93,24.04
		c12.15,0,19.02-11.18,19.02-24.65c0-11.8-6.16-24.12-18.93-24.12C912.14,507.93,905.8,519.64,905.8,532.67z"/>
	<path class="st7" d="M999.39,502.65v35.13c0,13.29,5.9,18.93,13.82,18.93c8.8,0,14.44-5.81,14.44-18.93v-35.13h7.75v34.6
		c0,18.22-9.6,25.71-22.45,25.71c-12.15,0-21.31-6.96-21.31-25.36v-34.95H999.39z"/>
	<path class="st7" d="M1078.62,503.44c3.87-0.79,9.42-1.23,14.7-1.23c8.19,0,13.47,1.5,17.17,4.84c2.99,2.64,4.67,6.69,4.67,11.27
		c0,7.84-4.93,13.03-11.18,15.14v0.26c4.58,1.58,7.31,5.81,8.72,11.97c1.94,8.28,3.35,14,4.58,16.29h-7.92
		c-0.97-1.67-2.29-6.78-3.96-14.17c-1.76-8.19-4.93-11.27-11.89-11.53h-7.22v25.71h-7.66V503.44z M1086.28,530.47h7.84
		c8.19,0,13.38-4.49,13.38-11.27c0-7.66-5.55-11-13.65-11.09c-3.7,0-6.34,0.35-7.57,0.71V530.47z"/>
	<path class="st7" d="M1212.17,502.65v24.83h28.7v-24.83h7.75v59.34h-7.75v-27.82h-28.7v27.82h-7.66v-59.34H1212.17z"/>
	<path class="st7" d="M1342.56,531.7c0,20.43-12.41,31.26-27.56,31.26c-15.67,0-26.68-12.15-26.68-30.11
		c0-18.84,11.71-31.17,27.56-31.17C1332.08,501.68,1342.56,514.1,1342.56,531.7z M1296.51,532.67c0,12.68,6.87,24.04,18.93,24.04
		c12.15,0,19.02-11.18,19.02-24.65c0-11.8-6.16-24.12-18.93-24.12C1302.85,507.93,1296.51,519.64,1296.51,532.67z"/>
	<path class="st7" d="M1432.44,535.93c-0.44-8.28-0.97-18.23-0.88-25.62h-0.26c-2.03,6.96-4.49,14.35-7.48,22.54l-10.48,28.79h-5.81
		l-9.6-28.26c-2.82-8.36-5.19-16.02-6.87-23.07h-0.18c-0.18,7.4-0.62,17.34-1.14,26.24l-1.58,25.44h-7.31l4.14-59.34h9.77
		l10.12,28.7c2.46,7.31,4.49,13.82,5.99,19.99h0.26c1.5-5.99,3.61-12.5,6.25-19.99l10.57-28.7h9.77l3.7,59.34h-7.48L1432.44,535.93z
		"/>
	<path class="st7" d="M1513.87,534.17h-23.07v21.39h25.71v6.43h-33.37v-59.34h32.05v6.43h-24.39v18.75h23.07V534.17z"/>
</g>
</svg>
