<?xml version="1.0" encoding="UTF-8" standalone="no"?>
<svg
   xmlns:dc="http://purl.org/dc/elements/1.1/"
   xmlns:cc="http://creativecommons.org/ns#"
   xmlns:rdf="http://www.w3.org/1999/02/22-rdf-syntax-ns#"
   xmlns:svg="http://www.w3.org/2000/svg"
   xmlns="http://www.w3.org/2000/svg"
   viewBox="0 0 2773.3333 2773.3333"
   height="2773.3333"
   width="2773.3333"
   xml:space="preserve"
   id="svg2"
   version="1.1"><metadata
     id="metadata8"><rdf:RDF><cc:Work
         rdf:about=""><dc:format>image/svg+xml</dc:format><dc:type
           rdf:resource="http://purl.org/dc/dcmitype/StillImage" /></cc:Work></rdf:RDF></metadata><defs
     id="defs6"><clipPath
       id="clipPath18"
       clipPathUnits="userSpaceOnUse"><path
         id="path16"
         d="M 0,2080 H 2080 V 0 H 0 Z" /></clipPath></defs><g
     transform="matrix(1.3333333,0,0,-1.3333333,0,2773.3333)"
     id="g10"><g
       id="g12"><g
         clip-path="url(#clipPath18)"
         id="g14"><g
           transform="translate(1023.6479,949.4141)"
           id="g20"><path
             id="path22"
             style="fill:#723000;fill-opacity:1;fill-rule:nonzero;stroke:none"
             d="M 0,0 C 0,0.372 -0.014,0.742 -0.011,1.115 -0.014,0.742 0,0.372 0,0" /></g><g
           transform="translate(1044.8691,1024.1416)"
           id="g24"><path
             id="path26"
             style="fill:#723000;fill-opacity:1;fill-rule:nonzero;stroke:none"
             d="M 0,0 C 2.228,4.224 4.579,8.393 7.042,12.511 4.579,8.393 2.228,4.224 0,0" /></g><g
           transform="translate(1246.0342,1017.4824)"
           id="g28"><path
             id="path30"
             style="fill:#723000;fill-opacity:1;fill-rule:nonzero;stroke:none"
             d="M 0,0 C -0.973,-0.887 -1.941,-1.789 -2.912,-2.684 -1.941,-1.789 -0.973,-0.888 0,0" /></g><g
           transform="translate(1023.8496,942.6113)"
           id="g32"><path
             id="path34"
             style="fill:#723000;fill-opacity:1;fill-rule:nonzero;stroke:none"
             d="M 0,0 C -0.031,0.548 -0.065,1.095 -0.088,1.645 -0.065,1.095 -0.031,0.548 0,0" /></g><g
           transform="translate(1025.1484,930.2871)"
           id="g36"><path
             id="path38"
             style="fill:#723000;fill-opacity:1;fill-rule:nonzero;stroke:none"
             d="M 0,0 C -0.031,0.197 -0.054,0.396 -0.084,0.595 -0.053,0.396 -0.031,0.197 0,0" /></g><g
           transform="translate(1027.9561,917.1299)"
           id="g40"><path
             id="path42"
             style="fill:#723000;fill-opacity:1;fill-rule:nonzero;stroke:none"
             d="M 0,0 C -0.059,0.224 -0.124,0.446 -0.184,0.67 -0.124,0.446 -0.059,0.224 0,0" /></g><g
           transform="translate(1024.3569,936.3525)"
           id="g44"><path
             id="path46"
             style="fill:#723000;fill-opacity:1;fill-rule:nonzero;stroke:none"
             d="M 0,0 C -0.054,0.5 -0.1,1.002 -0.147,1.504 -0.1,1.002 -0.054,0.5 0,0" /></g><g
           transform="translate(1234.5742,1006.8008)"
           id="g48"><path
             id="path50"
             style="fill:#723000;fill-opacity:1;fill-rule:nonzero;stroke:none"
             d="M 0,0 C -1.207,-1.149 -2.407,-2.314 -3.609,-3.477 -2.407,-2.314 -1.207,-1.149 0,0" /></g><g
           transform="translate(1228.9033,1001.335)"
           id="g52"><path
             id="path54"
             style="fill:#723000;fill-opacity:1;fill-rule:nonzero;stroke:none"
             d="M 0,0 C -1.294,-1.261 -2.579,-2.537 -3.866,-3.813 -2.58,-2.537 -1.294,-1.262 0,0" /></g><g
           transform="translate(824.9673,968.8086)"
           id="g56"><path
             id="path58"
             style="fill:#723000;fill-opacity:1;fill-rule:nonzero;stroke:none"
             d="M 0,0 C -0.312,0.267 -0.622,0.536 -0.934,0.803 -0.622,0.536 -0.312,0.267 0,0" /></g><g
           transform="translate(1026.48,976.1875)"
           id="g60"><path
             id="path62"
             style="fill:#723000;fill-opacity:1;fill-rule:nonzero;stroke:none"
             d="M 0,0 C 0.141,0.664 0.27,1.326 0.423,1.991 0.27,1.326 0.141,0.664 0,0" /></g><g
           transform="translate(1033.0952,998.1172)"
           id="g64"><path
             id="path66"
             style="fill:#723000;fill-opacity:1;fill-rule:nonzero;stroke:none"
             d="M 0,0 C 3.36,8.911 7.318,17.576 11.774,26.024 7.318,17.576 3.36,8.911 0,0" /></g><g
           transform="translate(1025.2388,969.54)"
           id="g68"><path
             id="path70"
             style="fill:#723000;fill-opacity:1;fill-rule:nonzero;stroke:none"
             d="M 0,0 C 0.117,0.735 0.238,1.472 0.369,2.209 0.238,1.472 0.117,0.736 0,0" /></g><g
           transform="translate(1023.8418,956.9053)"
           id="g72"><path
             id="path74"
             style="fill:#723000;fill-opacity:1;fill-rule:nonzero;stroke:none"
             d="M 0,0 C 0.018,0.293 0.049,0.59 0.069,0.884 0.049,0.589 0.017,0.293 0,0" /></g><g
           transform="translate(1251.8193,1022.7002)"
           id="g76"><path
             id="path78"
             style="fill:#723000;fill-opacity:1;fill-rule:nonzero;stroke:none"
             d="M 0,0 C -0.782,-0.698 -1.562,-1.41 -2.345,-2.114 -1.562,-1.41 -0.782,-0.698 0,0" /></g><g
           transform="translate(1024.3755,963.1611)"
           id="g80"><path
             id="path82"
             style="fill:#723000;fill-opacity:1;fill-rule:nonzero;stroke:none"
             d="M 0,0 C 0.072,0.668 0.162,1.339 0.246,2.008 0.162,1.339 0.072,0.668 0,0" /></g><g
           transform="translate(1240.292,1012.1895)"
           id="g84"><path
             id="path86"
             style="fill:#723000;fill-opacity:1;fill-rule:nonzero;stroke:none"
             d="M 0,0 C -1.109,-1.033 -2.214,-2.083 -3.321,-3.127 -2.214,-2.083 -1.109,-1.033 0,0" /></g><g
           transform="translate(1156.7295,916.3496)"
           id="g88"><path
             id="path90"
             style="fill:#723000;fill-opacity:1;fill-rule:nonzero;stroke:none"
             d="M 0,0 C -1.479,-2.181 -2.936,-4.373 -4.373,-6.576 -2.937,-4.373 -1.478,-2.181 0,0" /></g><g
           transform="translate(1190.751,960.7363)"
           id="g92"><path
             id="path94"
             style="fill:#723000;fill-opacity:1;fill-rule:nonzero;stroke:none"
             d="M 0,0 C -1.544,-1.805 -3.075,-3.622 -4.598,-5.448 -3.075,-3.622 -1.544,-1.805 0,0" /></g><g
           transform="translate(1195.9893,966.7705)"
           id="g96"><path
             id="path98"
             style="fill:#723000;fill-opacity:1;fill-rule:nonzero;stroke:none"
             d="M 0,0 C -1.529,-1.735 -3.043,-3.484 -4.553,-5.24 -3.043,-3.484 -1.527,-1.735 0,0" /></g><g
           transform="translate(1152.3174,909.7119)"
           id="g100"><path
             id="path102"
             style="fill:#723000;fill-opacity:1;fill-rule:nonzero;stroke:none"
             d="M 0,0 C -1.448,-2.221 -2.873,-4.454 -4.276,-6.698 -2.874,-4.454 -1.447,-2.222 0,0" /></g><g
           transform="translate(1185.5918,954.6191)"
           id="g104"><path
             id="path106"
             style="fill:#723000;fill-opacity:1;fill-rule:nonzero;stroke:none"
             d="M 0,0 C -1.553,-1.868 -3.091,-3.75 -4.618,-5.64 -3.091,-3.75 -1.553,-1.868 0,0" /></g><g
           transform="translate(1175.5518,942.1592)"
           id="g108"><path
             id="path110"
             style="fill:#723000;fill-opacity:1;fill-rule:nonzero;stroke:none"
             d="M 0,0 C -1.548,-1.981 -3.079,-3.976 -4.596,-5.98 -3.079,-3.976 -1.548,-1.981 0,0" /></g><g
           transform="translate(1217.6992,990.1465)"
           id="g112"><path
             id="path114"
             style="fill:#723000;fill-opacity:1;fill-rule:nonzero;stroke:none"
             d="M 0,0 C -1.412,-1.443 -2.815,-2.902 -4.217,-4.363 -2.815,-2.902 -1.412,-1.443 0,0" /></g><g
           transform="translate(1180.5244,948.4268)"
           id="g116"><path
             id="path118"
             style="fill:#723000;fill-opacity:1;fill-rule:nonzero;stroke:none"
             d="M 0,0 C -1.557,-1.931 -3.098,-3.874 -4.625,-5.826 -3.098,-3.874 -1.557,-1.931 0,0" /></g><g
           transform="translate(1161.2568,922.9014)"
           id="g120"><path
             id="path122"
             style="fill:#723000;fill-opacity:1;fill-rule:nonzero;stroke:none"
             d="M 0,0 C -1.505,-2.137 -2.989,-4.285 -4.454,-6.445 -2.989,-4.285 -1.505,-2.137 0,0" /></g><g
           transform="translate(1165.9063,929.3877)"
           id="g124"><path
             id="path126"
             style="fill:#723000;fill-opacity:1;fill-rule:nonzero;stroke:none"
             d="M 0,0 C -1.519,-2.082 -3.02,-4.176 -4.503,-6.279 -3.021,-4.175 -1.519,-2.082 0,0" /></g><g
           transform="translate(1031.8306,905.0693)"
           id="g128"><path
             id="path130"
             style="fill:#723000;fill-opacity:1;fill-rule:nonzero;stroke:none"
             d="M 0,0 C -0.018,0.047 -0.034,0.095 -0.052,0.143 -0.034,0.095 -0.018,0.047 0,0" /></g><g
           transform="translate(1212.1729,984.4229)"
           id="g132"><path
             id="path134"
             style="fill:#723000;fill-opacity:1;fill-rule:nonzero;stroke:none"
             d="M 0,0 C -1.442,-1.511 -2.873,-3.037 -4.303,-4.566 -2.874,-3.037 -1.442,-1.512 0,0" /></g><g
           transform="translate(1111.334,824.916)"
           id="g136"><path
             id="path138"
             style="fill:#723000;fill-opacity:1;fill-rule:nonzero;stroke:none"
             d="M 0,0 C 8.529,27.195 21.224,53.329 36.706,78.097 21.22,53.329 8.53,27.196 0,0" /></g><g
           transform="translate(1029.7935,910.9189)"
           id="g140"><path
             id="path142"
             style="fill:#723000;fill-opacity:1;fill-rule:nonzero;stroke:none"
             d="M 0,0 C -0.084,0.26 -0.167,0.521 -0.249,0.781 -0.167,0.521 -0.084,0.26 0,0" /></g><g
           transform="translate(1206.7051,978.6152)"
           id="g144"><path
             id="path146"
             style="fill:#723000;fill-opacity:1;fill-rule:nonzero;stroke:none"
             d="M 0,0 C -1.483,-1.596 -2.956,-3.206 -4.425,-4.821 -2.956,-3.206 -1.483,-1.596 0,0" /></g><g
           transform="translate(1040.1343,887.1201)"
           id="g148"><path
             id="path150"
             style="fill:#723000;fill-opacity:1;fill-rule:nonzero;stroke:none"
             d="M 0,0 C -0.043,0.077 -0.086,0.153 -0.128,0.23 -0.086,0.153 -0.043,0.077 0,0" /></g><g
           transform="translate(1043.3799,881.54)"
           id="g152"><path
             id="path154"
             style="fill:#723000;fill-opacity:1;fill-rule:nonzero;stroke:none"
             d="M 0,0 C 0,-0.001 0.001,-0.002 0.001,-0.003 -0.001,0.002 -0.004,0.006 -0.007,0.011 -0.004,0.007 -0.002,0.003 0,0" /></g><g
           transform="translate(1201.3174,972.7402)"
           id="g156"><path
             id="path158"
             style="fill:#723000;fill-opacity:1;fill-rule:nonzero;stroke:none"
             d="M 0,0 C -1.506,-1.663 -2.998,-3.34 -4.486,-5.021 -2.998,-3.339 -1.504,-1.663 0,0" /></g><g
           transform="translate(814.6807,1013.0508)"
           id="g160"><path
             id="path162"
             style="fill:#723000;fill-opacity:1;fill-rule:nonzero;stroke:none"
             d="M 0,0 C 4.952,-10.202 10.219,-20.245 15.81,-30.103 10.217,-20.246 4.954,-10.201 0,0" /></g><g
           transform="translate(901.6919,916.4287)"
           id="g164"><path
             id="path166"
             style="fill:#723000;fill-opacity:1;fill-rule:nonzero;stroke:none"
             d="m 0,0 c 2.775,-3.359 5.594,-6.677 8.479,-9.929 -2.885,3.252 -5.704,6.571 -8.48,9.93 z" /></g><g
           transform="translate(855.4468,985.5)"
           id="g168"><path
             id="path170"
             style="fill:#723000;fill-opacity:1;fill-rule:nonzero;stroke:none"
             d="M 0,0 C -0.606,1.12 -1.216,2.239 -1.813,3.364 -1.215,2.239 -0.608,1.12 0,0" /></g><g
           transform="translate(1086.5029,808.3291)"
           id="g172"><path
             id="path174"
             style="fill:#723000;fill-opacity:1;fill-rule:nonzero;stroke:none"
             d="M 0,0 C -6.139,2.245 -12.288,4.465 -18.451,6.672 -12.288,4.465 -6.139,2.245 0,0" /></g><g
           transform="translate(810.9404,1020.9121)"
           id="g176"><path
             id="path178"
             style="fill:#723000;fill-opacity:1;fill-rule:nonzero;stroke:none"
             d="M 0,0 C 0.983,-2.108 1.976,-4.212 2.984,-6.308 1.975,-4.212 0.983,-2.108 0,0" /></g><g
           transform="translate(839.5889,967.543)"
           id="g180"><path
             id="path182"
             style="fill:#723000;fill-opacity:1;fill-rule:nonzero;stroke:none"
             d="M 0,0 C -1.477,2.402 -2.931,4.819 -4.367,7.246 -2.931,4.818 -1.477,2.401 0.001,-0.001 0,-0.001 0,0 0,0" /></g><g
           transform="translate(771.4214,1016.8877)"
           id="g184"><path
             id="path186"
             style="fill:#723000;fill-opacity:1;fill-rule:nonzero;stroke:none"
             d="M 0,0 C -2.232,2.127 -4.433,4.288 -6.647,6.434 -4.433,4.288 -2.233,2.127 0,0" /></g><g
           transform="translate(1002.3872,919.666)"
           id="g188"><path
             id="path190"
             style="fill:#723000;fill-opacity:1;fill-rule:nonzero;stroke:none"
             d="M 0,0 C 1.773,-7.56 4.134,-14.956 7.044,-22.14 4.134,-14.956 1.773,-7.56 0,0" /></g><g
           transform="translate(784.5977,1004.5352)"
           id="g192"><path
             id="path194"
             style="fill:#723000;fill-opacity:1;fill-rule:nonzero;stroke:none"
             d="M 0,0 C -1.53,1.413 -3.037,2.85 -4.559,4.271 -3.037,2.85 -1.53,1.413 0,0" /></g><g
           transform="translate(850.6089,994.6562)"
           id="g196"><path
             id="path198"
             style="fill:#723000;fill-opacity:1;fill-rule:nonzero;stroke:none"
             d="M 0,0 C -0.893,1.738 -1.771,3.483 -2.642,5.233 -1.77,3.484 -0.894,1.737 0,0" /></g><g
           transform="translate(852.5791,945.8389)"
           id="g200"><path
             id="path202"
             style="fill:#723000;fill-opacity:1;fill-rule:nonzero;stroke:none"
             d="M 0,0 V 0 C -0.021,0.018 -0.042,0.035 -0.063,0.053 -0.042,0.035 -0.021,0.018 0,0" /></g><g
           transform="translate(845.7607,1004.3418)"
           id="g204"><path
             id="path206"
             style="fill:#723000;fill-opacity:1;fill-rule:nonzero;stroke:none"
             d="M 0,0 C -1.632,3.37 -3.241,6.752 -4.793,10.157 -3.241,6.752 -1.636,3.369 0,0" /></g><g
           transform="translate(803.2915,1038.0508)"
           id="g208"><path
             id="path210"
             style="fill:#723000;fill-opacity:1;fill-rule:nonzero;stroke:none"
             d="M 0,0 C 0.826,-1.937 1.672,-3.865 2.519,-5.793 1.672,-3.865 0.826,-1.937 0,0" /></g><g
           transform="translate(807.0845,1029.3633)"
           id="g212"><path
             id="path214"
             style="fill:#723000;fill-opacity:1;fill-rule:nonzero;stroke:none"
             d="M 0,0 C 0.889,-1.994 1.792,-3.98 2.705,-5.963 1.792,-3.98 0.889,-1.993 0,0" /></g><g
           transform="translate(1170.6748,935.8096)"
           id="g216"><path
             id="path218"
             style="fill:#723000;fill-opacity:1;fill-rule:nonzero;stroke:none"
             d="M 0,0 C -1.533,-2.03 -3.049,-4.072 -4.55,-6.124 -3.049,-4.072 -1.533,-2.03 0,0" /></g><g
           transform="translate(1051.9111,1036.6523)"
           id="g220"><path
             id="path222"
             style="fill:#723000;fill-opacity:1;fill-rule:nonzero;stroke:none"
             d="M 0,0 C 3.695,6.177 7.641,12.239 11.794,18.197 7.641,12.239 3.695,6.177 0,0" /></g><g
           transform="translate(802.0283,1041.0747)"
           id="g224"><path
             id="path226"
             style="fill:#723000;fill-opacity:1;fill-rule:nonzero;stroke:none"
             d="M 0,0 C -0.543,1.293 -1.084,2.587 -1.618,3.885 -1.619,3.884 -1.622,3.883 -1.623,3.882 -1.09,2.584 -0.542,1.293 0,0" /></g><g
           transform="translate(1024.3535,869.4219)"
           id="g228"><path
             id="path230"
             style="fill:#723000;fill-opacity:1;fill-rule:nonzero;stroke:none"
             d="m 0,0 c 0,0 0,0.001 -0.001,0.001 -0.06,0.09 -0.126,0.176 -0.186,0.266 -0.09,0.113 -0.159,0.248 -0.249,0.36 0.09,-0.112 0.159,-0.247 0.249,-0.36 C -0.127,0.176 -0.061,0.09 0,0" /></g><g
           transform="translate(1072.2764,1066.6313)"
           id="g232"><path
             id="path234"
             style="fill:#723000;fill-opacity:1;fill-rule:nonzero;stroke:none"
             d="M 0,0 C 2.94,3.883 5.96,7.724 9.048,11.525 5.96,7.724 2.94,3.883 0,0" /></g><g
           transform="translate(1218.041,957.5791)"
           id="g236"><path
             id="path238"
             style="fill:#723000;fill-opacity:1;fill-rule:nonzero;stroke:none"
             d="m 0,0 c -4.486,-4.963 -8.895,-9.998 -13.209,-15.111 -21.625,-25.634 -41.299,-53.523 -56.042,-83.728 -11.02,-22.578 -18.457,-47.202 -17.934,-72.514 0.033,-1.571 0.047,-19.435 0.713,-19.703 -0.001,0 -23.962,9.646 -23.962,9.646 -13.982,5.629 -28.085,10.77 -43.536,16.313 -0.004,0 -3.676,1.309 -3.676,1.309 -4.665,1.663 -9.326,3.333 -13.979,5.028 -25.275,9.207 -50.202,19.418 -74.07,31.785 -0.009,0.06 -0.03,0.116 -0.064,0.165 -4.275,4.667 -12.103,6.477 -17.494,9.51 -12.099,6.809 -23.203,17.075 -34.306,25.423 -22.812,17.15 -45.432,34.545 -68.018,51.991 -2.208,1.716 -4.383,3.461 -6.579,5.188 142.804,-172.397 99.93,-309.198 24.152,-401.601 H 46.238 C -82.005,-255.68 -16.059,-64.414 39.737,40.073 25.92,27.299 12.621,13.958 0,0" /></g><g
           transform="translate(811.375,980.5205)"
           id="g240"><path
             id="path242"
             style="fill:#723000;fill-opacity:1;fill-rule:nonzero;stroke:none"
             d="M 0,0 C -0.624,0.544 -1.24,1.098 -1.863,1.644 -1.24,1.098 -0.624,0.544 0,0" /></g><g
           transform="translate(797.9214,992.417)"
           id="g244"><path
             id="path246"
             style="fill:#723000;fill-opacity:1;fill-rule:nonzero;stroke:none"
             d="M 0,0 C -1.04,0.934 -2.066,1.882 -3.104,2.818 -2.066,1.882 -1.04,0.933 0,0" /></g><g
           transform="translate(1033.0952,998.1172)"
           id="g248"><path
             id="path250"
             style="fill:#723000;fill-opacity:1;fill-rule:nonzero;stroke:none"
             d="m 0,0 c -1.68,-4.456 -3.21,-8.973 -4.579,-13.554 0,-0.003 -0.001,-0.005 -0.001,-0.007 0,0.002 0.001,0.004 0.001,0.006 C -3.21,-8.973 -1.68,-4.456 0,0" /></g><g
           transform="translate(830.6294,982.7031)"
           id="g252"><path
             id="path254"
             style="fill:#723000;fill-opacity:1;fill-rule:nonzero;stroke:none"
             d="M 0,0 C 1.38,-2.432 2.784,-4.85 4.204,-7.258 2.784,-4.85 1.38,-2.431 0,0" /></g><g
           transform="translate(1219.2041,991.6709)"
           id="g256"><path
             id="path258"
             style="fill:#723000;fill-opacity:1;fill-rule:nonzero;stroke:none"
             d="M 0,0 C 1.354,1.376 2.707,2.75 4.07,4.11 2.707,2.75 1.354,1.375 0,0" /></g><g
           transform="translate(838.7031,957.2559)"
           id="g260"><path
             id="path262"
             style="fill:#723000;fill-opacity:1;fill-rule:nonzero;stroke:none"
             d="M 0,0 C -0.11,0.092 -0.219,0.185 -0.329,0.275 -0.219,0.185 -0.11,0.092 0,0" /></g><g
           transform="translate(1292.3447,1055.0352)"
           id="g264"><path
             id="path266"
             style="fill:#007d00;fill-opacity:1;fill-rule:nonzero;stroke:none"
             d="m 0,0 c 72.318,58.455 127.379,123.927 151.375,215.497 3.966,17.311 7.095,34.741 9.328,52.21 0.894,6.987 1.645,13.98 2.249,20.974 0.302,3.497 0.567,6.994 0.795,10.491 0.455,6.994 0.763,13.986 0.918,20.971 0.31,13.969 0.01,27.911 -0.93,41.783 -0.703,10.404 -1.766,20.769 -3.201,31.077 -0.958,6.872 -2.079,13.72 -3.371,20.537 -1.291,6.816 -2.751,13.602 -4.384,20.353 -0.816,3.376 -1.675,6.742 -2.579,10.099 -3.612,13.427 -7.923,26.702 -12.96,39.782 -7.557,19.621 -16.752,38.805 -27.681,57.41 -4.125,6.131 -8.521,12.195 -13.209,18.214 -1.613,2.08 -3.261,4.152 -4.944,6.217 -5.048,6.197 -10.402,12.33 -15.998,18.399 1.623,-3.911 3.15,-7.856 4.582,-11.834 0.715,-1.99 1.406,-3.988 2.074,-5.994 0.667,-2.006 1.313,-4.02 1.932,-6.044 3.96,-12.076 6.856,-24.221 8.785,-36.387 0.553,-3.476 1.025,-6.953 1.42,-10.431 0.396,-3.479 0.715,-6.958 0.961,-10.436 0.366,-5.218 0.567,-10.434 0.608,-15.646 0.053,-6.949 -0.176,-13.889 -0.672,-20.812 -0.123,-1.731 -0.264,-3.46 -0.42,-5.189 -0.314,-3.457 -0.693,-6.908 -1.135,-10.354 -0.441,-3.446 -0.947,-6.886 -1.513,-10.319 -0.847,-5.149 -1.833,-10.282 -2.946,-15.396 -0.743,-3.408 -1.543,-6.809 -2.398,-10.199 -0.427,-1.695 -0.869,-3.388 -1.324,-5.077 -1.363,-5.071 -2.849,-10.117 -4.449,-15.137 -0.532,-1.673 -1.078,-3.343 -1.637,-5.01 -2.231,-6.667 -4.662,-13.285 -7.27,-19.843 -3.914,-9.836 -8.233,-19.539 -12.892,-29.078 -1.552,-3.18 -3.144,-6.342 -4.771,-9.484 -1.627,-3.142 -3.29,-6.265 -4.987,-9.368 -1.697,-3.102 -3.425,-6.185 -5.187,-9.246 -0.88,-1.53 -1.769,-3.055 -2.664,-4.574 -1.792,-3.039 -3.614,-6.056 -5.464,-9.05 -1.85,-2.994 -3.728,-5.964 -5.631,-8.911 -0.951,-1.473 -1.909,-2.94 -2.873,-4.401 -2.892,-4.383 -5.84,-8.71 -8.835,-12.977 -5.988,-8.535 -12.167,-16.832 -18.473,-24.86 -36.133,-41.703 -75.222,-80.588 -112.822,-120.938 -3.629,-3.827 -7.337,-7.663 -11.099,-11.512 -0.321,-0.328 -0.648,-0.659 -0.969,-0.987 -3.404,-3.478 -6.851,-6.966 -10.331,-10.469 -1.147,-1.155 -2.306,-2.32 -3.459,-3.478 -1.056,-1.061 -2.115,-2.124 -3.176,-3.187 C -155.087,83.884 -168.86,70.131 -182.18,55.92 -65.37,52.66 16.172,22.333 16.172,22.333 16.172,22.333 9.791,14.414 0,0" /></g><g
           transform="translate(1081.3242,1078.1563)"
           id="g268"><path
             id="path270"
             style="fill:#007d00;fill-opacity:1;fill-rule:nonzero;stroke:none"
             d="m 0,0 c -3.088,-3.801 -6.107,-7.642 -9.048,-11.525 -2.941,-3.883 -5.803,-7.809 -8.571,-11.782 -4.153,-5.958 -8.099,-12.02 -11.794,-18.197 -2.463,-4.118 -4.815,-8.287 -7.042,-12.511 -4.456,-8.448 -8.414,-17.113 -11.774,-26.024 -1.68,-4.456 -3.21,-8.973 -4.579,-13.555 0,-0.002 -10e-4,-0.004 -10e-4,-0.006 -0.6,-2.13 -1.127,-4.256 -1.612,-6.378 -0.153,-0.665 -0.282,-1.327 -0.423,-1.991 -0.316,-1.481 -0.612,-2.962 -0.873,-4.438 -0.131,-0.738 -0.252,-1.474 -0.368,-2.209 -0.234,-1.46 -0.437,-2.917 -0.618,-4.371 -0.084,-0.669 -0.174,-1.34 -0.246,-2.008 -0.195,-1.796 -0.348,-3.587 -0.464,-5.372 -0.02,-0.294 -0.052,-0.591 -0.069,-0.884 -0.125,-2.135 -0.191,-4.26 -0.205,-6.376 -0.003,-0.373 0.011,-0.743 0.011,-1.115 0.003,-1.726 0.038,-3.445 0.113,-5.158 0.023,-0.55 0.058,-1.097 0.088,-1.645 0.091,-1.591 0.209,-3.176 0.36,-4.755 0.048,-0.502 0.094,-1.004 0.148,-1.504 0.196,-1.832 0.43,-3.657 0.707,-5.47 0.03,-0.199 0.053,-0.398 0.084,-0.595 0.665,-4.217 1.544,-8.382 2.624,-12.487 0.06,-0.224 0.125,-0.447 0.184,-0.67 0.49,-1.823 1.019,-3.633 1.588,-5.43 0.083,-0.261 0.165,-0.522 0.249,-0.781 0.62,-1.917 1.278,-3.821 1.986,-5.707 0.017,-0.048 0.034,-0.096 0.051,-0.143 2.289,-6.076 5.026,-11.992 8.176,-17.719 0.042,-0.077 0.085,-0.153 0.128,-0.23 1.037,-1.877 2.115,-3.735 3.239,-5.569 0.003,-0.005 0.006,-0.009 0.008,-0.014 11.04,-16.438 25.421,-30.428 42.779,-41.568 l 0.231,-0.149 0.228,-0.154 c 7.519,-5.089 15.898,-10.077 24.715,-14.75 8.53,27.196 21.219,53.329 36.706,78.096 0,0 0,0.001 0.001,0.001 1.403,2.245 2.828,4.478 4.276,6.699 0.013,0.02 0.027,0.041 0.039,0.061 1.438,2.203 2.895,4.396 4.373,6.576 0.025,0.036 0.049,0.072 0.074,0.107 1.464,2.16 2.949,4.308 4.454,6.445 0.048,0.069 0.098,0.138 0.146,0.207 1.484,2.104 2.984,4.197 4.503,6.279 0.072,0.1 0.147,0.199 0.219,0.298 1.501,2.052 3.016,4.094 4.55,6.124 l 0.281,0.369 c 1.516,2.005 3.048,3.999 4.596,5.981 0.115,0.147 0.232,0.294 0.347,0.441 1.528,1.952 3.069,3.896 4.625,5.827 0.149,0.184 0.3,0.368 0.449,0.552 1.528,1.89 3.066,3.772 4.619,5.64 0.186,0.224 0.376,0.445 0.561,0.669 1.523,1.826 3.054,3.643 4.598,5.448 0.227,0.266 0.458,0.528 0.685,0.794 1.51,1.756 3.024,3.505 4.553,5.24 0.279,0.318 0.563,0.632 0.842,0.948 1.488,1.682 2.98,3.359 4.486,5.022 0.32,0.353 0.644,0.701 0.963,1.054 1.469,1.615 2.941,3.225 4.425,4.821 0.387,0.416 0.777,0.827 1.165,1.241 1.43,1.529 2.86,3.056 4.303,4.567 0.434,0.456 0.874,0.906 1.309,1.36 1.402,1.461 2.805,2.92 4.217,4.363 0.5,0.512 1.004,1.016 1.505,1.525 1.353,1.375 2.707,2.75 4.07,4.11 0.585,0.584 1.175,1.16 1.763,1.741 1.287,1.276 2.572,2.552 3.866,3.813 0.685,0.668 1.374,1.325 2.062,1.989 1.202,1.162 2.402,2.327 3.609,3.477 0.797,0.759 1.598,1.506 2.396,2.261 1.108,1.044 2.212,2.094 3.322,3.127 0.941,0.877 1.886,1.739 2.83,2.61 0.971,0.894 1.939,1.796 2.912,2.683 1.144,1.044 2.294,2.071 3.44,3.104 0.783,0.704 1.563,1.416 2.345,2.114 1.931,1.722 3.862,3.428 5.796,5.118 0.006,0.005 0.012,0.01 0.017,0.015 3.447,3.012 6.899,5.985 10.348,8.892 h 0.024 c 5.697,4.514 11.597,9.003 17.663,13.447 2.021,1.482 4.061,2.958 6.118,4.429 0.091,0.067 0.158,0.113 0.249,0.18 0.103,0.084 0.206,0.17 0.311,0.254 9.791,14.413 16.171,22.332 16.171,22.332 0,0 -81.542,30.328 -198.351,33.588 C 20.55,23.952 12.431,14.929 4.68,5.673 3.104,3.792 1.544,1.9 0,0" /></g><g
           transform="translate(1106.2148,1142.1304)"
           id="g272"><path
             id="path274"
             style="fill:#007d00;fill-opacity:1;fill-rule:nonzero;stroke:none"
             d="m 0,0 c 2.481,2.623 4.959,5.24 7.421,7.846 22.82,24.153 46.043,48.085 68.968,72.301 13.1,13.838 26.104,27.769 38.88,41.886 6.387,7.059 12.718,14.164 18.975,21.328 6.259,7.164 12.443,14.386 18.538,21.679 3.048,3.646 6.073,7.31 9.074,10.993 11.869,15.334 23.296,31.585 33.808,48.564 3.504,5.659 6.906,11.4 10.189,17.214 14.774,26.164 27.135,53.824 35.483,82.339 1.854,6.337 3.512,12.716 4.953,19.13 1.441,6.415 2.667,12.864 3.659,19.342 0.993,6.478 1.752,12.984 2.26,19.512 0.509,6.527 0.767,13.075 0.757,19.638 -0.038,22.971 -3.361,46.115 -10.724,69.133 -4.271,14.371 -9.833,28.212 -16.424,41.554 -4.943,10.006 -10.465,19.732 -16.454,29.191 -1.997,3.153 -4.045,6.276 -6.142,9.37 -4.486,6.593 -9.186,13.057 -14.066,19.397 -2.44,3.17 -4.926,6.309 -7.451,9.418 -2.526,3.108 -5.093,6.187 -7.697,9.236 l -0.045,0.045 c -8.302,9.755 -16.996,19.206 -25.903,28.362 -2.968,3.052 -5.96,6.071 -8.969,9.058 h -0.024 c -4.88,4.858 -9.811,9.631 -14.764,14.322 -4.954,4.692 -9.931,9.302 -14.902,13.833 -4.011,3.517 -8.068,6.988 -12.127,10.369 -17.605,15.802 -39.313,30.905 -60.885,40.733 0.992,-2.975 1.938,-6.041 2.817,-9.129 2.232,-7.935 4.081,-16.05 5.478,-24.391 0.023,-0.135 0.045,-0.27 0.068,-0.405 0.349,-1.916 0.67,-3.832 0.966,-5.748 0.297,-1.916 0.566,-3.832 0.814,-5.748 0.519,-4.013 0.924,-8.003 1.195,-11.993 0.225,-2.964 0.388,-5.923 0.497,-8.876 0.106,-2.953 0.157,-5.9 0.157,-8.842 -0.023,-5.906 -0.248,-11.812 -0.699,-17.673 -0.428,-5.771 -1.059,-11.496 -1.871,-17.222 -7.732,-54.282 -32.122,-106.218 -60.841,-152.971 -0.023,-0.045 -0.068,-0.09 -0.114,-0.157 -2.907,-4.757 -5.882,-9.468 -8.88,-14.112 -20.063,-28.966 -43.281,-55.34 -67.739,-80.7 -16.265,-16.873 -33.061,-33.277 -49.848,-49.696 -5.596,-5.473 -11.191,-10.948 -16.764,-16.443 -4.018,-3.973 -8.027,-7.955 -12.017,-11.951 -11.97,-11.99 -23.774,-24.116 -35.187,-36.559 -25.044,-27.321 -48.194,-56.22 -67.219,-88.478 -8.729,-17.456 -15.416,-34.398 -20.219,-51.22 -1.373,-4.806 -2.591,-9.603 -3.659,-14.398 -0.535,-2.398 -1.031,-4.796 -1.49,-7.194 -0.919,-4.798 -1.689,-9.599 -2.316,-14.413 -0.626,-4.814 -1.108,-9.641 -1.449,-14.491 -0.339,-4.849 -0.539,-9.721 -0.6,-14.624 -0.111,-8.799 0.22,-17.697 0.971,-26.749 0.25,-3.017 0.547,-6.05 0.891,-9.104 1.373,-12.212 3.481,-24.728 6.275,-37.679 0.896,-3.482 1.833,-6.965 2.809,-10.444 2.846,-10.139 6.044,-20.254 9.567,-30.3 89.005,39.821 177.084,53.582 253.236,54.909 C -19.315,-20.452 -9.608,-10.155 0,0" /></g><g
           transform="translate(845.7607,1004.3418)"
           id="g276"><path
             id="path278"
             style="fill:#007d00;fill-opacity:1;fill-rule:nonzero;stroke:none"
             d="m 0,0 c 0.724,-1.489 1.467,-2.97 2.207,-4.452 0.87,-1.75 1.749,-3.495 2.641,-5.234 0.997,-1.937 2.003,-3.869 3.025,-5.792 0.597,-1.125 1.207,-2.244 1.813,-3.364 1.215,-2.242 2.431,-4.483 3.682,-6.704 4.67,-7.574 9.503,-14.98 14.528,-22.182 L 55.93,-87.912 c 2.776,-3.359 5.595,-6.678 8.48,-9.93 2.187,-2.479 4.396,-4.914 6.628,-7.304 2.377,-2.325 4.804,-4.613 7.258,-6.876 0.353,-0.327 0.707,-0.653 1.061,-0.978 2.522,-2.305 5.076,-4.583 7.672,-6.817 v -0.001 c 22.192,-19.102 47.144,-35.448 74.132,-46.575 10.527,-4.373 21.167,-8.453 31.874,-12.398 4.859,-1.792 9.716,-3.556 14.576,-5.306 4.861,-1.75 9.725,-3.485 14.593,-5.22 h 0.024 c 0.02,-0.008 0.043,-0.016 0.063,-0.024 6.163,-2.207 12.313,-4.427 18.451,-6.672 0.007,-0.002 0.013,-0.004 0.02,-0.007 -3.067,1.956 -6.082,3.949 -9.01,5.988 -22.054,15.12 -40.114,33.912 -53.159,55.112 -0.061,0.09 -0.128,0.176 -0.187,0.267 -0.091,0.113 -0.159,0.248 -0.249,0.36 -5.748,8.701 -10.606,17.9 -14.486,27.478 -2.91,7.183 -5.271,14.58 -7.045,22.139 -2.957,12.6 -4.285,25.652 -3.813,38.927 0.189,5.311 0.666,10.656 1.44,16.022 0.776,5.367 1.85,10.754 3.233,16.147 0.569,2.003 1.168,3.991 1.795,5.966 1.255,3.948 2.627,7.841 4.105,11.679 1.478,3.839 3.063,7.625 4.747,11.361 1.684,3.735 3.467,7.421 5.34,11.059 1.873,3.638 3.836,7.23 5.88,10.777 4.087,7.095 8.501,14.014 13.171,20.781 2.335,3.384 4.735,6.73 7.189,10.041 1.227,1.656 2.469,3.303 3.723,4.942 0.001,0.002 0.002,0.004 0.003,0.006 8.894,11.622 18.435,22.824 28.232,33.749 C 155.519,105.453 67.44,91.692 -21.565,51.872 -16.624,37.785 -11.035,23.835 -4.793,10.157 -3.241,6.752 -1.632,3.37 0,0" /></g><g
           transform="translate(800.4058,1044.9565)"
           id="g280"><path
             id="path282"
             style="fill:#007d00;fill-opacity:1;fill-rule:nonzero;stroke:none"
             d="m 0,0 c -0.769,1.87 -1.516,3.749 -2.264,5.627 -0.62,1.556 -1.245,3.109 -1.852,4.669 -0.555,1.433 -1.096,2.872 -1.641,4.309 -0.636,1.675 -1.269,3.35 -1.889,5.031 -0.507,1.37 -1.004,2.743 -1.5,4.117 -0.649,1.8 -1.29,3.602 -1.922,5.408 -0.446,1.275 -0.892,2.55 -1.33,3.828 -0.699,2.041 -1.383,4.087 -2.06,6.136 -0.35,1.055 -0.705,2.108 -1.048,3.165 -1.013,3.117 -2.007,6.24 -2.97,9.373 -15.604,55.527 -12.633,108.069 5.525,159.292 2.18,6.146 4.578,12.274 7.188,18.385 1.741,4.075 3.576,8.142 5.503,12.203 1.928,4.061 3.949,8.115 6.062,12.165 9.602,15.587 20.315,30.613 31.794,45.184 11.478,14.571 23.722,28.687 36.386,42.456 6.333,6.885 12.769,13.682 19.269,20.407 19.499,20.173 39.556,39.685 59.006,58.899 38.209,38.096 75.516,76.102 107.683,119.518 35.211,53.38 66.433,115.731 69.519,180.697 0.136,2.784 0.215,5.579 0.238,8.378 0.022,2.797 -0.012,5.598 -0.102,8.394 -0.061,2.35 -0.166,4.701 -0.312,7.054 -0.439,7.06 -1.254,14.135 -2.438,21.236 v 0.023 c -0.022,0.18 -0.068,0.36 -0.09,0.541 -0.563,3.651 -1.24,7.303 -2.028,10.932 -0.835,4.035 -1.805,8.048 -2.863,11.992 -0.744,2.728 -1.578,5.523 -2.525,8.544 -2.389,7.529 -4.283,13.48 -6.087,19.003 -13.21,29.62 -34.691,55.724 -59.872,75.674 -28.672,-14.81 -56.625,-30.973 -83.585,-48.714 -41.072,-28.065 -76.17,-59.759 -112.056,-94.225 -75.292,-73.6 -160.657,-151.28 -198.8,-251.953 -7.647,-20.181 -14.059,-41.011 -19.221,-62.245 -2.581,-10.616 -4.85,-21.334 -6.805,-32.121 -6.842,-37.755 -9.837,-76.367 -8.911,-114.514 0.396,-16.348 1.514,-32.612 3.356,-48.686 0.282,-2.682 0.588,-5.368 0.918,-8.057 0.989,-8.066 2.193,-16.164 3.613,-24.313 4.713,-26.593 11.842,-51.041 21.2,-73.986 2.807,-6.884 5.814,-13.632 9.017,-20.262 9.609,-19.89 20.976,-38.717 33.961,-56.95 5.772,-8.103 11.864,-16.089 18.263,-23.998 3.2,-3.954 6.477,-7.89 9.828,-11.811 6.704,-7.843 13.709,-15.629 21.005,-23.401 4.239,-4.328 8.521,-8.617 12.839,-12.87 1.615,-1.591 3.259,-3.153 4.885,-4.733 C -24.763,-12.911 -12.383,-6.196 0,0" /></g><g
           transform="translate(763.293,1024.7578)"
           id="g284"><path
             id="path286"
             style="fill:#007d00;fill-opacity:1;fill-rule:nonzero;stroke:none"
             d="m 0,0 c 0.493,-0.479 0.987,-0.958 1.481,-1.437 2.215,-2.145 4.415,-4.306 6.647,-6.433 2.852,-2.716 5.738,-5.396 8.618,-8.082 1.522,-1.421 3.029,-2.858 4.559,-4.271 3.384,-3.123 6.799,-6.214 10.219,-9.299 1.039,-0.937 2.064,-1.885 3.104,-2.819 3.841,-3.442 7.71,-6.854 11.591,-10.253 0.623,-0.546 1.239,-1.099 1.863,-1.643 4.197,-3.662 8.419,-7.295 12.658,-10.909 0.313,-0.267 0.622,-0.537 0.934,-0.803 4.449,-3.784 8.918,-7.542 13.407,-11.278 0.11,-0.09 0.219,-0.183 0.329,-0.275 4.584,-3.812 9.19,-7.6 13.813,-11.364 0.021,-0.018 0.043,-0.035 0.063,-0.053 -4.495,7.063 -8.821,14.306 -12.989,21.703 -1.478,2.403 -2.932,4.82 -4.368,7.247 -0.13,0.219 -0.259,0.438 -0.389,0.656 -1.42,2.409 -2.823,4.827 -4.204,7.258 -0.047,0.081 -0.092,0.163 -0.138,0.245 -5.592,9.858 -10.859,19.901 -15.81,30.103 -0.251,0.519 -0.507,1.035 -0.757,1.554 -1.008,2.095 -2.001,4.199 -2.984,6.307 -0.385,0.828 -0.769,1.658 -1.151,2.489 -0.913,1.982 -1.816,3.968 -2.704,5.962 -0.43,0.963 -0.851,1.93 -1.275,2.895 -0.846,1.928 -1.693,3.855 -2.518,5.793 -0.429,1.005 -0.841,2.017 -1.264,3.024 -0.542,1.293 -1.089,2.584 -1.622,3.882 C 24.73,14.003 12.35,7.288 0,0" /></g><g
           transform="translate(1106.2148,1142.1304)"
           id="g288"><path
             id="path290"
             style="fill:#ff43ff;fill-opacity:1;fill-rule:nonzero;stroke:none"
             d="M 0,0 C -19.553,-20.665 -39.526,-41.904 -57.014,-64.757 -39.526,-41.904 -19.553,-20.666 0,0" /></g><g
           transform="translate(1267.9805,1036.7256)"
           id="g292"><path
             id="path294"
             style="fill:#ff43ff;fill-opacity:1;fill-rule:nonzero;stroke:none"
             d="M 0,0 C -3.449,-2.907 -6.9,-5.88 -10.349,-8.893 -6.9,-5.881 -3.449,-2.907 0,0" /></g><g
           transform="translate(925.1182,891.3418)"
           id="g296"><path
             id="path298"
             style="fill:#ff43ff;fill-opacity:1;fill-rule:nonzero;stroke:none"
             d="M 0,0 C -0.355,0.325 -0.708,0.651 -1.061,0.978 -0.708,0.651 -0.355,0.324 0,0" /></g><g
           transform="translate(1168.6523,1170.5425)"
           id="g300"><path
             id="path302"
             style="fill:#ff43ff;fill-opacity:1;fill-rule:nonzero;stroke:none"
             d="M 0,0 C 3.762,3.849 7.47,7.685 11.1,11.511 7.47,7.685 3.762,3.849 0,0" /></g><g
           transform="translate(1157.3535,1159.0859)"
           id="g304"><path
             id="path306"
             style="fill:#ff43ff;fill-opacity:1;fill-rule:nonzero;stroke:none"
             d="M 0,0 C 3.479,3.503 6.926,6.992 10.33,10.469 6.926,6.992 3.479,3.503 0,0" /></g><g
           transform="translate(1150.7178,1152.4209)"
           id="g308"><path
             id="path310"
             style="fill:#ff43ff;fill-opacity:1;fill-rule:nonzero;stroke:none"
             d="M 0,0 C 1.061,1.063 2.12,2.126 3.176,3.187 2.121,2.127 1.06,1.062 0,0" /></g><path
           id="path312"
           style="fill:#ffff00;fill-opacity:1;fill-rule:nonzero;stroke:none"
           d="M 1040,535.775 H 457.361 V 514.381 H 1040 Z" /><path
           id="path314"
           style="fill:#0000ff;fill-opacity:1;fill-rule:nonzero;stroke:none"
           d="m 1040,514.382 h 291.319 v 21.394 H 1040 Z" /><path
           id="path316"
           style="fill:#ff0000;fill-opacity:1;fill-rule:nonzero;stroke:none"
           d="m 1331.319,514.382 h 291.319 v 21.394 h -291.319 z" /></g></g><text
       id="text320"
       style="font-variant:normal;font-weight:900;font-stretch:normal;font-size:198.55830383px;font-family:'Panton Black';-inkscape-font-specification:Panton-Black;writing-mode:lr-tb;fill:#2d2d2d;fill-opacity:1;fill-rule:nonzero;stroke:none"
       transform="matrix(1,0,0,-1,544.4102,297.624)"><tspan
         id="tspan318"
         y="0"
         x="0 129.26146 264.67822 370.11267 505.52942 669.34003 799.99139 859.36035">COLOMBIA</tspan></text>
<text
       id="text324"
       style="font-variant:normal;font-weight:300;font-stretch:normal;font-size:63.77730179px;font-family:'Myriad Pro';-inkscape-font-specification:Read-Light;writing-mode:lr-tb;fill:#2d2d2d;fill-opacity:1;fill-rule:nonzero;stroke:none"
       transform="matrix(1,0,0,-1,722.0923,188.4512)"><tspan
         id="tspan322"
         y="0"
         x="0 36.927055 90.053551 122.32486 176.21667 241.84352 304.79172 360.78818 395.99326 459.26035 524.88721 597.84839">IS YOUR HOME</tspan></text>
</g></svg>